<svg xmlns="http://www.w3.org/2000/svg" width="145.75" height="157.828"><path d="M109.413.062c1.75-.025 3.512-.05 5.275-.062.025.975.062 2.912.087 3.887-1.8 0-3.6-.012-5.387-.012 0-.95.025-2.85.025-3.813z" opacity=".85" fill="#101010"/><path d="M2.625.862C5.838.887 9.063.9 12.3.912c-.275 5.75.85 11.725-.775 17.325C9.425 22.262 4.2 21.475.438 21.55.288 20.275.138 19 0 17.725c2.163-.175 4.513.25 6.5-.863 1.288-3.987.713-8.25.388-12.35-1.1.025-3.288.05-4.388.063.038-.925.088-2.788.125-3.713zM66.988 2.437C70.775-.488 75.75.712 79.963 1.85a528.094 528.094 0 00-.025 4.45c-3.263-1.313-9.463-4.175-10.288 1.225 3.088.937 6.35 1.487 9.15 3.162 2.975 2.425 2.138 7.938-1.287 9.6-3.9 2.313-8.525 1.05-12.638.213-.237-1.713-.475-3.413-.687-5.125 3.462 1.525 10.475 5.137 11.512-.7-3.475-1.313-7.8-1.5-10.325-4.5-1.112-2.55-.925-6.1 1.613-7.738zM136.1 1.575h4.425c.038 1.412.088 2.825.15 4.237l4.525.05c.025.863.063 2.575.088 3.425-1.15-.012-3.45-.037-4.6-.062.062 2.862-.675 5.987.762 8.625 1.075.112 3.225.325 4.3.437-.112 5.263-6.112 2.875-9.287 2.05a108.13 108.13 0 01-.425-9.65 575.432 575.432 0 01-2.425-3.425l2.45-2.25c.012-.862.025-2.587.037-3.437zM16.2 5.975c4.075-.213 9.775-1.725 12.338 2.487.912 4.175.337 8.513.475 12.763-1.825-.163-3.65-.338-5.463-.5-2.075.175-4.512 1.712-6.425.337-3.175-1.525-3.225-7.15.113-8.512 2.425-1 5.075-1.175 7.612-1.775-2.412-2.5-5.837-1.55-8.875-1.225.063-.9.175-2.688.225-3.575m3.975 8.587a171.64 171.64 0 00-.375 3.65c1.388-.075 2.775-.137 4.175-.212.1-1.313.213-2.625.325-3.938-1.387.163-2.762.338-4.125.5zM30.875 5.537c1.2.238 3.613.713 4.813.95 1.262 2.9 2.125 5.95 3.35 8.875 1.025-3.125 1.975-6.287 2.9-9.45 1.2-.025 3.612-.062 4.812-.087-1.7 5.362-3.6 10.662-5.725 15.887a31.54 31.54 0 01-4.85-1.025c-2.275-4.85-3.775-10.025-5.3-15.15zM48.3 9.525c.35-1.188.75-2.375 1.188-3.538 3.875-.562 9.125-1.387 11.787 2.238.913 4.325.35 8.8.438 13.187-1.838-.25-3.663-.5-5.488-.75-3.275 1.738-8.737 1.113-8.662-3.5-.625-5.475 6.212-5.55 9.925-6.275-2.238-3-6.113-1.412-9.188-1.362m4.525 5.15c-.137 1.125-.262 2.262-.387 3.387 1.375.038 2.75.075 4.137.1l.375-4.15c-1.375.213-2.75.438-4.125.663zM81.738 13.612C81.35 6.812 90 3.25 95.175 6.875c.125.962.363 2.9.475 3.862-2.375-.75-4.812-2.45-7.362-1.3-2.7 2.575-2.138 9.113 2.437 8.725 1.263-.4 3.775-1.2 5.038-1.6a654.77 654.77 0 00-.875 4.288c-5.413 2.55-13.575-.463-13.15-7.238zM97.725 5.487c1.875.5 3.788 1 5.675 1.538 1.413-.513 2.838-1.013 4.275-1.525.063 1.2.213 3.6.288 4.8l-5.375.262c-.125 3.588-.163 7.163-.188 10.75-1.175.013-3.537.025-4.712.038-.063-5.288-.075-10.575.037-15.863zM118.05 5.825c3.45.775 6.925.537 10.363-.15 5.387 1.112 5.512 8.75 3.462 12.75-1.7 3.45-5.862 3.125-9.075 2.95l.075 5.462c-1.2-.012-3.625-.037-4.837-.062 0-6.975-.013-13.963.012-20.95m4.875 3.675c-.05 2.912-.075 5.837-.05 8.75 1.55-.425 3.55-.125 4.725-1.463.875-2.375.188-4.937.013-7.387a586.34 586.34 0 00-4.688.1zM109.863 5.862h4.437c.075 5.163.075 10.313 0 15.475h-4.437a456.177 456.177 0 010-15.475z" fill="#131313"/><path d="M17.113 31.375c12.462-.525 24.95.15 37.425-.063 13.762-.437 27.512-.075 41.287-.025 10.925.025 21.85-.05 32.775.038-3.437 37.912-6.9 75.825-10.087 113.762-14.638 4.163-29.288 8.263-43.925 12.4-1.875.775-3.8.05-5.6-.437-13.913-4-27.825-7.963-41.763-11.813C23.6 107.312 20.188 69.35 17.113 31.375m55.975 9.887c-.513 18.7-.075 37.4-.225 56.1.137 17.1-.25 34.213.2 51.313 12.3-2.9 24.437-6.463 36.575-9.975 3.05-32.463 6.025-64.925 8.575-97.425-15.038-.15-30.088.025-45.125-.013m-15.65 73.025c-7.225-1.975-14.363-4.25-21.688-5.812-.212 4.35-.137 8.7.363 13.025 10.725 2.612 21.225 6.05 31.962 8.612.075-24.762-.037-49.537.05-74.3-3.5-.087-7-.137-10.5-.212-.4 19.55-.025 39.125-.187 58.687z" fill="#d6ba32"/><path d="M73.088 41.262c15.037.038 30.087-.137 45.125.013-2.55 32.5-5.525 64.962-8.575 97.425-12.138 3.512-24.275 7.075-36.575 9.975-.45-17.1-.063-34.213-.2-51.313.15-18.7-.288-37.4.225-56.1M77.3 55.8c.05 16.1.063 32.212 0 48.312 7.35-1.187 14.675-2.55 22-3.887-.112 3.75-.262 7.5-.425 11.25-7.137 1.9-14.262 3.862-21.437 5.625-.113 4.325-.125 8.65-.088 12.987 9.038-2.025 17.938-4.575 26.913-6.837 1.125-.525 3.287-.463 3.187-2.225 1.088-11.575 1.763-23.2 2.813-34.8-7.438.612-14.8 1.862-22.238 2.375-.062-6.575-.075-13.15.025-19.725 7.825 0 15.638 0 23.463.012.5-4.387.937-8.787 1.275-13.187-11.825.05-23.663-.113-35.488.1z" fill="#ffda3e"/><path d="M57.438 114.287c.162-19.562-.213-39.137.187-58.687 3.5.075 7 .125 10.5.212-.087 24.763.025 49.538-.05 74.3-10.737-2.562-21.237-6-31.962-8.612-.5-4.325-.575-8.675-.363-13.025 7.325 1.562 14.463 3.837 21.688 5.812z" fill="#ebebeb"/></svg>